<?xml version="1.0" encoding="UTF-8" standalone="no"?>
<svg
   width="24"
   height="24"
   viewBox="-2 -2 24 24"
   version="1.1"
   id="svg1"
   sodipodi:docname="logo.svg"
   inkscape:version="1.4.2 (ebf0e940d0, 2025-05-08)"
   xmlns:inkscape="http://www.inkscape.org/namespaces/inkscape"
   xmlns:sodipodi="http://sodipodi.sourceforge.net/DTD/sodipodi-0.dtd"
   xmlns="http://www.w3.org/2000/svg"
   xmlns:svg="http://www.w3.org/2000/svg">
  <defs
     id="defs1">
    <inkscape:path-effect
       effect="fillet_chamfer"
       id="path-effect3"
       is_visible="true"
       lpeversion="1"
       nodesatellites_param="F,0,0,1,0,0.84642927,0,1 @ F,0,0,1,0,0.69764786,0,1 @ F,0,0,1,0,0.80301802,0,1 @ F,0,0,1,0,0.80301802,0,1 @ F,0,0,1,0,0.80301802,0,1 @ F,0,0,1,0,0.23614258,0,1"
       radius="0"
       unit="px"
       method="auto"
       mode="F"
       chamfer_steps="1"
       flexible="false"
       use_knot_distance="true"
       apply_no_radius="true"
       apply_with_radius="true"
       only_selected="false"
       hide_knots="false" />
  </defs>
  <sodipodi:namedview
     id="namedview1"
     pagecolor="#505050"
     bordercolor="#eeeeee"
     borderopacity="1"
     inkscape:showpageshadow="0"
     inkscape:pageopacity="0"
     inkscape:pagecheckerboard="0"
     inkscape:deskcolor="#505050"
     showguides="true"
     inkscape:zoom="13.241387"
     inkscape:cx="8.7226514"
     inkscape:cy="19.748687"
     inkscape:window-width="1366"
     inkscape:window-height="740"
     inkscape:window-x="0"
     inkscape:window-y="0"
     inkscape:window-maximized="1"
     inkscape:current-layer="svg1" />
  <path
     id="path14"
     style="display:inline;fill:#ffffff;stroke-width:0.583906"
     d="M 10.542014,-0.05285092 A 5.8146469,6.642205 0 0 0 8.1971677,0.56307669 L 1.5513514,4.0795949 a 3.9630047,4.5270314 0 0 0 -2.30095759,4.1825815 l 0.087775,5.8942846 a 4.0299992,4.6035608 0 0 0 2.40127189,4.132447 l 6.4451887,3.25869 a 4.440226,5.0721723 0 0 0 2.9780786,0.250668 4.440226,5.0721723 0 0 0 1.021951,-0.479852 l 1.824465,-1.188885 0.0063,-0.0072 c 0.02793,-0.03591 0.05405,-0.07313 0.07524,-0.114583 0.05342,-0.09631 0.08037,-0.204787 0.0815,-0.322282 v -0.544302 c 0.0012,-0.347576 0.0042,-0.627006 0.0063,-0.830788 l -0.169284,0.143227 c -0.105576,0.09009 -0.240074,0.184002 -0.401256,0.286496 -0.168143,0.105886 -0.336449,0.198364 -0.501571,0.272172 -0.175943,0.07908 -0.336346,0.102334 -0.476493,0.07161 -0.147149,-0.02872 -0.257211,-0.12715 -0.313485,-0.286495 l -0.06895,-0.13625 c -0.05957,-0.106606 -0.136888,-0.197367 -0.225709,-0.264951 -0.102046,-0.08274 -0.208259,-0.11558 -0.313481,-0.100263 l -0.05015,-0.0072 c -0.03444,-0.006 -0.06014,-0.01795 -0.08778,-0.03591 -0.02306,-0.01397 -0.05285,-0.04624 -0.06896,-0.07161 V 18.174 18.1668 l -0.0063,-0.0072 v -0.0072 l 0.0063,-0.0072 V 18.138 18.1308 c 0.0062,-0.01955 0.01831,-0.03998 0.03762,-0.06448 0.0387,-0.04983 0.111857,-0.106363 0.213166,-0.171874 l 0.1442,-0.07161 c 0.09591,-0.04145 0.210561,-0.05075 0.351099,-0.03591 0.142044,0.01556 0.259202,0.07617 0.344832,0.186197 0.108787,0.147216 0.2464,0.229285 0.401257,0.243527 0.155272,0.01356 0.311606,-0.03272 0.470223,-0.136086 0.158579,-0.103296 0.291534,-0.205745 0.407526,-0.30796 0.11232,-0.0989 0.222043,-0.20746 0.326021,-0.329424 0.04674,-0.387472 0.169547,-0.741287 0.363637,-1.059966 -0.249035,0.134808 -0.497704,0.247356 -0.739816,0.336604 -0.236226,0.08175 -0.465027,0.125793 -0.677122,0.128944 -0.222006,0.0096 -0.412692,-0.04839 -0.570536,-0.164732 -0.151709,-0.114342 -0.274583,-0.310192 -0.36991,-0.594442 -0.09495,-0.284978 -0.142331,-0.653875 -0.13793,-1.110101 0.0064,-0.648884 0.198999,-1.330069 0.583076,-2.033994 -0.172703,-0.372432 -0.147968,-0.925263 0.06896,-1.668737 0.140215,-0.139757 0.347944,-0.243288 0.620694,-0.300778 0.272727,-0.05762 0.468906,-0.08135 0.595617,-0.07876 0.126702,0.0035 0.230842,0.006 0.307212,0.01437 0.452106,-0.435204 0.917664,-0.808143 1.385591,-1.1114499 0.476132,-0.310185 0.939643,-0.5428 1.38559,-0.6947091 l 0.275867,-0.3724238 c 0.212056,-0.278039 0.43288,-0.5360708 0.664582,-0.7806514 0.255744,-0.2731333 0.448619,-0.4330789 0.583077,-0.4726895 0.210389,0.46554 0.22683,1.000226 0.04389,1.6042774 0.375611,0.2083184 0.558009,0.6394484 0.551725,1.2891533 -0.0044,0.456235 -0.05463,0.888143 -0.156736,1.303476 -0.101725,0.415507 -0.23029,0.781899 -0.388717,1.095779 -0.165382,0.323558 -0.365382,0.635183 -0.589347,0.916727 -0.234302,0.29647 -0.463556,0.55203 -0.683391,0.759167 -0.243418,0.227249 -0.490245,0.433017 -0.739818,0.623091 0.247179,0.0788 0.368304,0.375304 0.36364,0.89524 l -0.01883,1.926567 c -8.35e-4,0.09072 0.0077,0.159785 0.03136,0.200558 l 0.0063,0.0072 0.0063,0.0072 0.0063,0.0072 h 0.0063 v 0.0072 l 0.0063,0.0072 h 0.0063 0.0063 0.0063 c 0.01561,0.006 0.04796,0.0092 0.06896,0.0072 l 1.567392,-1.023519 a 4.7642941,5.4423626 0 0 0 2.40754,-4.640944 L 21.144382,5.3319949 A 1.1244954,1.2845369 0 0 0 20.993538,4.6740206 1.1244954,1.2845369 0 0 0 20.460615,4.1297122 L 12.905667,0.47713339 A 5.8146469,6.642205 0 0 0 10.542014,-0.05285092 Z M 0.83661271,8.6202723 c 0.1260123,-0.00996 0.27308589,0.033351 0.44514399,0.1217518 0.169631,0.087147 0.3191302,0.1971354 0.4451445,0.3366132 0.1260124,0.1367039 0.2243966,0.2937928 0.2946738,0.4655268 0.070277,0.168972 0.1065828,0.347297 0.1065828,0.5299889 L 1.670474,9.8378191 c 0,-0.141192 -0.03874,-0.269997 -0.1065828,-0.379581 C 1.498462,9.3470951 1.4053475,9.2638911 1.2817568,9.2004168 1.1581662,9.1369358 1.0612064,9.1248816 0.99335491,9.1644756 c -0.00423,0.00255 -0.014842,0.011379 -0.018832,0.014279 -0.051949,0.045992 -0.081508,0.1342835 -0.081508,0.2578215 v 1.3249629 c 0,0.141193 0.032436,0.267225 0.1003111,0.379573 0.067855,0.112348 0.16481139,0.201516 0.28840199,0.264991 0.1235907,0.06348 0.2167045,0.07257 0.2821344,0.02872 0.067851,-0.04265 0.1065828,-0.13812 0.1065828,-0.279313 V 10.818909 L 1.2190319,10.589744 v -0.451199 l 0.9090976,0.465526 v 0.787811 c 0,0.182686 -0.036305,0.32304 -0.1065828,0.422557 -0.070277,0.09679 -0.1686575,0.147537 -0.2946738,0.157551 C 1.6008606,11.97919 1.4513653,11.94446 1.2817285,11.857407 1.1096718,11.768998 0.96259831,11.657487 0.83658391,11.520763 0.71057161,11.381285 0.61218751,11.224214 0.54191021,11.055238 0.47405471,10.884721 0.44159911,10.707941 0.44159911,10.525251 V 9.2073792 c 0,-0.1826836 0.032436,-0.3245235 0.1003111,-0.4225521 0.070277,-0.099533 0.1686574,-0.1574872 0.2946737,-0.1647241 z M 3.3256587,9.6515961 c 0.00383,-9.19e-4 0.00862,5.46e-4 0.012527,0 0.047253,-0.0068 0.1064875,0.0072 0.175547,0.04297 0.092089,0.04732 0.1661245,0.117774 0.2194373,0.200559 0.053317,0.08 0.081505,0.1593059 0.081505,0.2506679 0,0.05138 -0.014483,0.104725 -0.031355,0.136085 l -0.00627,0.0072 c -0.00226,0.003 -0.016279,0.01875 -0.018828,0.02154 l -0.00627,0.0072 h -0.00626 v 0.0072 H 3.739422 3.733152 C 3.679835,10.350158 3.6058036,10.343768 3.5137147,10.296298 3.4216267,10.248978 3.3475914,10.182914 3.294278,10.102962 3.240964,10.020222 3.219042,9.9364741 3.219042,9.8451511 c 0,-0.04568 0.01173,-0.09264 0.025095,-0.121723 0.00187,-0.0033 0.010449,-0.01835 0.012527,-0.02154 l 0.00627,-0.0072 0.00627,-0.0072 0.00627,-0.0072 c 0.00291,-0.0021 0.015679,-0.01236 0.018831,-0.01437 0.00997,-0.0052 0.019908,-0.01157 0.031359,-0.01437 z M 2.7049648,10.26036 3.7708029,10.81183 v 1.811973 l 0.6144257,0.31514 V 13.41163 L 2.6359989,12.509217 V 12.03653 l 0.6833905,0.350927 V 11.048172 L 2.7049648,10.733031 Z m 2.5141246,0.651738 0.4576842,0.229164 v 0.644575 l 0.7962433,0.408231 v 0.472691 L 5.6767736,12.258544 v 1.117264 c 0,0.06647 0.018674,0.125752 0.050154,0.186196 0.03396,0.05896 0.079775,0.106207 0.1379292,0.136086 l 0.5893473,0.300818 v 0.472686 L 5.827243,14.149312 C 5.6406476,14.053443 5.4935709,13.920148 5.3820989,13.741078 5.2730466,13.560467 5.2190861,13.364177 5.2190861,13.153797 V 12.022196 L 4.6673602,11.7357 v -0.465529 l 0.5517281,0.279313 z m -4.99063169,1.067133 0.3761779,0.193376 0.1692836,2.205881 c 0.00486,0.07448 0.00769,0.170437 0.012527,0.286494 0.00726,0.114423 0.012527,0.208938 0.012527,0.286496 0.00726,-0.07376 0.01153,-0.16517 0.018832,-0.272172 0.0097,-0.108521 0.024058,-0.196768 0.031359,-0.264991 L 1.081141,12.416131 1.4698583,12.61669 1.683024,14.844058 c 0.00726,0.07572 0.021663,0.175184 0.031359,0.293636 0.012089,0.116936 0.017833,0.212407 0.025095,0.293636 0.00242,-0.07629 0.00769,-0.163893 0.012527,-0.272172 0.00726,-0.10975 0.013964,-0.202673 0.018831,-0.272172 L 1.9338471,12.852991 2.3100249,13.046368 2.0153511,15.925473 1.5137802,15.667664 1.3131498,13.440296 c -0.00726,-0.08403 -0.017833,-0.183562 -0.025095,-0.300818 -0.00726,-0.119969 -0.013964,-0.216437 -0.018831,-0.293637 -0.00486,0.07226 -0.011529,0.159625 -0.018832,0.272173 -0.00726,0.10975 -0.011529,0.202793 -0.018831,0.279313 L 1.0121247,15.40981 0.50428401,15.151989 Z m 2.48277679,2.019668 0.4451441,0.229164 v 0.444041 c 0.024257,-0.137043 0.081045,-0.220586 0.1755475,-0.257809 0.096933,-0.0387 0.2235111,-0.02114 0.3761775,0.05733 0.2035592,0.104569 0.3625978,0.25753 0.4764932,0.465525 0.1138962,0.207979 0.16928,0.44768 0.16928,0.716198 V 15.86819 L 3.9024626,15.639026 v -0.193377 c 0,-0.138439 -0.037305,-0.260921 -0.100311,-0.365251 -0.063012,-0.107115 -0.1470058,-0.190903 -0.2633239,-0.250667 -0.113592,-0.05833 -0.2133887,-0.05526 -0.2758663,-0.01437 -0.063008,0.05066 -0.1003155,0.148534 -0.1003155,0.300818 v 1.403738 l -0.4514134,-0.23634 z m 2.4702378,1.339285 c 0.1254046,-0.0072 0.2777491,0.02952 0.4576831,0.121725 0.2544543,0.130739 0.4487925,0.300657 0.5893462,0.508497 0.1405515,0.20782 0.2131656,0.434011 0.2131656,0.680383 v 1.554142 L 5.9965231,17.973768 v -0.429715 c -0.016958,0.138001 -0.077616,0.221145 -0.1818191,0.250668 -0.1042041,0.02952 -0.2403191,-2.7e-5 -0.407526,-0.08594 C 5.2036182,17.604212 5.0431601,17.46302 4.9244158,17.271901 4.8080977,17.079282 4.7488676,16.87629 4.7488676,16.663135 c 0,-0.221464 0.067341,-0.368082 0.2006295,-0.429717 0.1332869,-0.06439 0.3190909,-0.03392 0.5517291,0.08594 l 0.4827623,0.250669 v -0.164733 c 0,-0.229761 -0.1160391,-0.402062 -0.3510992,-0.522819 -0.1066282,-0.05478 -0.1877765,-0.07916 -0.2507838,-0.06448 h -0.00631 l -0.00631,0.0072 c -0.011689,0.0052 -0.023931,0.01074 -0.031359,0.01437 -0.0031,0.002 -0.015962,0.01197 -0.018828,0.01437 l -0.00631,0.0072 -0.00631,0.0072 -0.00631,0.0072 c -0.00199,0.0032 -0.010737,0.01795 -0.01253,0.02154 v 0.0072 l -0.00631,0.0072 c -0.0041,0.01676 -0.00454,0.0379 -0.00631,0.05733 L 4.8363482,15.739566 c 0.00974,-0.199881 0.085154,-0.324437 0.2257057,-0.379573 0.035753,-0.01356 0.077328,-0.01915 0.1191218,-0.02154 z m 1.8181946,0.866595 0.4451452,0.229164 v 0.4154 c 0.03634,-0.125274 0.099843,-0.204628 0.1943592,-0.236346 0.094508,-0.03431 0.2105434,-0.01515 0.3510982,0.05733 0.1284386,0.06594 0.2416274,0.164692 0.3385602,0.286494 0.099356,0.123041 0.1786589,0.262278 0.2319763,0.422554 0.055733,0.158746 0.081501,0.32695 0.081501,0.501337 v 0.615926 c 0,0.262996 -0.056806,0.444751 -0.1755485,0.544309 -0.1187432,0.09954 -0.2802031,0.100861 -0.4764916,0 C 7.8497158,18.968727 7.736103,18.865799 7.6391669,18.732984 7.5446594,18.601366 7.4748911,18.44992 7.4385371,18.281782 l 0.018828,0.551466 v 0.637418 L 6.9996824,19.234321 Z m -1.680262,0.415396 c -0.013084,0.0044 -0.026732,0.01515 -0.037624,0.02154 l -0.00631,0.0072 h -0.00631 c -0.00454,0.004 -0.00941,0.01157 -0.01253,0.01437 -0.00155,0.0014 -0.00852,0.01117 -0.01253,0.01437 h -0.00631 c -0.027485,0.0375 -0.037624,0.09623 -0.037624,0.164732 0,0.102411 0.027208,0.198843 0.087777,0.293636 0.063016,0.09323 0.1494311,0.170676 0.2633228,0.229164 0.1332869,0.06846 0.2422074,0.08502 0.3197528,0.05011 l 0.00631,-0.0072 c 0.021817,-0.01277 0.048117,-0.03311 0.062695,-0.05011 0.030285,-0.04285 0.043889,-0.108355 0.043889,-0.186196 v -0.264958 l -0.463946,-0.243526 c -0.074517,-0.0383 -0.1367448,-0.05238 -0.1880908,-0.04297 -0.00432,7.85e-4 -0.00819,-0.0015 -0.01253,0 z m 2.2884178,0.36525 c -0.021629,0.0044 -0.038022,0.01556 -0.05643,0.02872 -0.063005,0.04795 -0.094043,0.146938 -0.094043,0.293637 v 0.544304 c 0,0.146698 0.031038,0.281269 0.094043,0.393895 0.065429,0.113904 0.1532731,0.198087 0.2695956,0.257811 0.1163169,0.05977 0.2065861,0.06826 0.2695944,0.02872 0.065429,-0.0383 0.1003078,-0.129862 0.1003078,-0.279313 v -0.587193 c 0,-0.149491 -0.034912,-0.281149 -0.1003078,-0.386754 -0.063016,-0.10437 -0.1532775,-0.183762 -0.2695944,-0.243527 -0.072702,-0.0375 -0.135265,-0.05434 -0.1880876,-0.05011 -0.00797,6.35e-4 -0.017876,-0.0014 -0.025094,0 z" />
</svg>
